<?xml version="1.0" standalone="no"?>
<!DOCTYPE svg PUBLIC "-//W3C//DTD SVG 20010904//EN"
 "http://www.w3.org/TR/2001/REC-SVG-20010904/DTD/svg10.dtd">
<svg version="1.0" xmlns="http://www.w3.org/2000/svg"
 width="260.000000pt" height="260.000000pt" viewBox="0 0 260.000000 260.000000"
 preserveAspectRatio="xMidYMid meet">
<metadata>
Created by potrace 1.11, written by Peter Selinger 2001-2013
</metadata>
<g transform="translate(0.000000,260.000000) scale(0.100000,-0.100000)"
fill="#000000" stroke="none">
<path d="M1115 2590 c-27 -5 -72 -11 -100 -15 -43 -6 -78 -13 -203 -40 -123
-28 -332 -116 -432 -184 -76 -52 -167 -150 -204 -221 -57 -107 -67 -168 -61
-370 2 -96 7 -193 10 -215 10 -69 34 -165 50 -194 12 -23 14 -94 15 -390 1
-199 6 -378 11 -399 50 -189 198 -306 398 -317 36 -2 71 -4 77 -4 7 -1 11 -40
11 -118 l-1 -118 578 -3 577 -2 -3 123 -3 123 65 -1 c205 -4 371 117 418 303
14 56 17 121 17 410 l0 343 29 6 c43 9 103 74 120 130 10 34 14 83 11 173 -9
378 -202 686 -531 849 -122 60 -237 93 -434 126 -56 10 -360 13 -415 5z"/>
</g>
</svg>
