<?xml version="1.0" standalone="no"?>
<!DOCTYPE svg PUBLIC "-//W3C//DTD SVG 20010904//EN"
 "http://www.w3.org/TR/2001/REC-SVG-20010904/DTD/svg10.dtd">
<svg version="1.0" xmlns="http://www.w3.org/2000/svg"
 width="260.000000pt" height="260.000000pt" viewBox="0 0 260.000000 260.000000"
 preserveAspectRatio="xMidYMid meet">
<metadata>
Created by potrace 1.11, written by Peter Selinger 2001-2013
</metadata>
<g transform="translate(0.000000,260.000000) scale(0.100000,-0.100000)"
fill="#000000" stroke="none">
<path d="M727 2501 c-96 -31 -162 -90 -224 -201 -20 -36 -45 -81 -56 -100 -11
-19 -40 -71 -65 -115 -24 -44 -61 -109 -82 -145 -20 -36 -48 -85 -62 -110 -22
-39 -125 -223 -186 -332 -50 -87 -64 -215 -35 -312 8 -27 52 -115 97 -195 46
-80 100 -177 121 -216 21 -38 46 -82 57 -97 10 -14 18 -28 18 -31 0 -6 98
-181 186 -332 60 -104 121 -165 202 -203 l57 -27 545 0 c506 0 548 1 590 18
90 37 150 95 212 205 11 20 104 186 206 367 184 327 204 363 241 429 48 85 62
214 34 309 -8 27 -83 171 -167 320 -210 374 -218 388 -283 506 -74 134 -135
201 -221 243 l-67 33 -530 2 c-494 2 -534 1 -588 -16z"/>
</g>
</svg>
