<?xml version="1.0" encoding="utf-8"?>
<!-- Generator: Adobe Illustrator 19.2.1, SVG Export Plug-In . SVG Version: 6.00 Build 0)  -->
<svg version="1.1" xmlns="http://www.w3.org/2000/svg" xmlns:xlink="http://www.w3.org/1999/xlink" x="0px" y="0px"
	 viewBox="0 0 32 32" style="enable-background:new 0 0 32 32;" xml:space="preserve">
<style type="text/css">
	.st0{fill:#FFFFFF;stroke:#000000;stroke-miterlimit:10;}
	.st1{fill:#7C7C74;}
</style>
<g id="Layer_2">
	<rect x="7" y="10.6" class="st0" width="17.8" height="13"/>
</g>
<g id="Layer_1">
	<path class="st1" d="M17.9,18.5c0,1,0.7,1.5,1.5,1.5c1.1,0,1.9-0.7,2.1-1.5c0.1-0.2,0.1-0.3,0.1-0.5v-1.5
		C19.8,16.5,17.9,16.8,17.9,18.5L17.9,18.5z M9.6,18.5c0,1,0.7,1.5,1.5,1.5c1.1,0,1.9-0.7,2.1-1.5c0.1-0.2,0.1-0.3,0.1-0.5v-1.5
		C11.5,16.5,9.6,16.8,9.6,18.5L9.6,18.5z M31.5,13.8L25.6,3.7c-0.7-1.2-2.4-2.2-3.7-2.2H10.1c-1.4,0-3.1,1-3.7,2.2L0.5,13.8
		c-0.7,1.2-0.7,3.1,0,4.3l5.9,10.2c0.7,1.2,2.4,2.2,3.7,2.2h11.7c1.4,0,3.1-1,3.7-2.2l5.9-10.2C32.2,17,32.2,15,31.5,13.8z M13.5,21
		l-0.1-1.1h-0.1c-0.5,0.7-1.4,1.3-2.7,1.3c-1.8,0-2.7-1.2-2.7-2.5c0-2.1,1.9-3.3,5.2-3.2v-0.2c0-0.7-0.2-2-2-2
		c-0.8,0-1.7,0.3-2.3,0.6l-0.4-1c0.7-0.5,1.8-0.8,2.9-0.8c2.7,0,3.3,1.8,3.3,3.6V19c0,0.8,0,1.5,0.1,2.1L13.5,21L13.5,21z M21.8,21
		l-0.1-1.1h-0.1c-0.5,0.7-1.4,1.3-2.7,1.3c-1.8,0-2.7-1.2-2.7-2.5c0-2.1,1.9-3.3,5.2-3.2v-0.2c0-0.7-0.2-2-2-2
		c-0.8,0-1.7,0.3-2.3,0.6l-0.4-1c0.7-0.5,1.8-0.8,2.9-0.8c2.7,0,3.3,1.8,3.3,3.6V19c0,0.8,0,1.5,0.1,2.1L21.8,21L21.8,21z"/>
</g>
</svg>
