<?xml version="1.0" encoding="utf-8"?>
<!-- Generator: Adobe Illustrator 19.2.1, SVG Export Plug-In . SVG Version: 6.00 Build 0)  -->
<svg version="1.1" xmlns="http://www.w3.org/2000/svg" xmlns:xlink="http://www.w3.org/1999/xlink" x="0px" y="0px"
	 viewBox="0 0 32 32" style="enable-background:new 0 0 32 32;" xml:space="preserve">
<style type="text/css">
	.st0{fill:#FFFFFF;stroke:#000000;stroke-miterlimit:10;}
	.st1{fill:#5F70A0;}
</style>
<g id="Layer_2">
	<rect x="9" y="9.8" class="st0" width="14" height="12.3"/>
</g>
<g id="Layer_1">
	<path class="st1" d="M11.3,18c0,1,0.7,1.5,1.4,1.5c1.1,0,1.8-0.7,2.1-1.4c0.1-0.2,0.1-0.3,0.1-0.5v-1.5
		C13.2,16.1,11.3,16.4,11.3,18z M31.5,13.8L25.6,3.7c-0.7-1.2-2.4-2.2-3.7-2.2H10.1c-1.4,0-3.1,1-3.7,2.2L0.5,13.8
		c-0.7,1.2-0.7,3.1,0,4.3l5.9,10.2c0.7,1.2,2.4,2.2,3.7,2.2h11.7c1.4,0,3.1-1,3.7-2.2l5.9-10.2C32.2,17,32.2,15,31.5,13.8z
		 M15.1,20.4l-0.1-1l0,0c-0.5,0.7-1.4,1.3-2.6,1.3c-1.7,0-2.6-1.2-2.6-2.4c0-2,1.8-3.2,5.1-3.1V15c0-0.7-0.2-2-1.9-1.9
		c-0.8,0-1.6,0.2-2.2,0.6l-0.3-1c0.7-0.4,1.7-0.7,2.8-0.7c2.6,0,3.2,1.8,3.2,3.4v3.2c0,0.7,0,1.4,0.1,2L15.1,20.4L15.1,20.4z
		 M22.2,13.4c-0.2,0-0.3,0-0.5,0c-1.1,0-1.8,0.8-2.1,2c0,0.2-0.1,0.5-0.1,0.7v4.5H18v-5.8c0-1,0-1.8-0.1-2.6h1.3l0.1,1.7h0.1
		c0.4-1.1,1.3-1.8,2.4-1.8c0.2,0,0.3,0,0.4,0L22.2,13.4L22.2,13.4z"/>
</g>
</svg>
