<?xml version="1.0" encoding="utf-8"?>
<!-- Generator: Adobe Illustrator 19.2.0, SVG Export Plug-In . SVG Version: 6.00 Build 0)  -->
<svg version="1.1" id="Layer_1" xmlns="http://www.w3.org/2000/svg" xmlns:xlink="http://www.w3.org/1999/xlink" x="0px" y="0px"
	 viewBox="0 0 32 32" style="enable-background:new 0 0 32 32;" xml:space="preserve">
<style type="text/css">
	.st0{fill:#548282;}
	.st1{fill:#444444;}
	.st2{fill:#FFFFFF;}
</style>
<path class="st0" d="M31.4,13.9L25.5,3.7c-0.7-1.2-2.4-2.2-3.7-2.2H10.1c-1.4,0-3.1,1-3.7,2.2L0.5,13.9c-0.7,1.2-0.7,3.1,0,4.3
	l5.9,10.2c0.7,1.2,2.4,2.2,3.7,2.2h11.7c1.4,0,3.1-1,3.7-2.2l5.9-10.2C32.1,17,32.1,15,31.4,13.9z"/>
<polygon class="st1" points="11.8,17.2 11.8,17.2 11.8,17.2 "/>
<g>
	<path class="st2" d="M11.1,14.3l0,0.1h-1l0-0.1c-0.2-1.1-0.9-1.8-2.2-1.8c-1.6,0-2.5,1.4-2.5,3.2c0,1.9,1,3.2,2.5,3.2
		c1.3,0,2-0.7,2.2-1.8l0-0.1h1l0,0.1c-0.1,1.4-1.2,2.6-3.2,2.6c-2.2,0-3.5-1.7-3.5-3.9c0-2.3,1.4-4,3.6-4
		C9.9,11.7,11,12.8,11.1,14.3z"/>
	<path class="st2" d="M18.8,15.7c0,2.3-1.3,4-3.6,4s-3.6-1.7-3.6-4c0-2.3,1.3-4,3.6-4S18.8,13.3,18.8,15.7z M17.7,15.7
		c0-2-0.9-3.2-2.6-3.2c-1.6,0-2.6,1.2-2.6,3.2c0,2,0.9,3.2,2.6,3.2C16.8,18.9,17.7,17.7,17.7,15.7z"/>
	<path class="st2" d="M26.9,19.5h-1v-3.9c0-1,0-2,0-2.9c-0.3,0.8-0.6,1.9-0.9,2.8l-1.4,3.9h-1.2l-1.4-4c-0.3-0.9-0.7-2-0.9-2.8
		c0,0.8,0,1.9,0,2.8v3.9h-1v-7.7h1.6l2.3,6.8l2.3-6.8h1.5V19.5z"/>
</g>
</svg>
