<svg id="Layer_1" data-name="Layer 1" xmlns="http://www.w3.org/2000/svg" viewBox="0 0 31.95 29.1"><defs><style>.cls-1{fill:#548282;}.cls-2{fill:#444;}.cls-3{fill:#fff;}</style></defs><title>js-icon</title><path class="cls-1" d="M31.43,13.85l-5.9-10.2a4.87,4.87,0,0,0-3.7-2.2H10.12a4.56,4.56,0,0,0-3.7,2.2l-5.9,10.2a4.66,4.66,0,0,0,0,4.3l5.9,10.2a4.87,4.87,0,0,0,3.7,2.2h11.7a4.56,4.56,0,0,0,3.7-2.2l5.9-10.2A4.66,4.66,0,0,0,31.43,13.85Z" transform="translate(0 -1.45)"/><polygon class="cls-2" points="11.76 15.78 11.76 15.78 11.76 15.78 11.76 15.78"/><path class="cls-3" d="M13.62,20c0,0.24,0,.55,0,0.77A1.26,1.26,0,0,1,12.1,22a3.08,3.08,0,0,1-.49,0V21.12c0.66,0.06.91-.14,1-0.53a3.81,3.81,0,0,0,0-.53v-7h1V20Zm0.14-8.34A0.66,0.66,0,1,1,13.1,11,0.65,0.65,0,0,1,13.76,11.68Z" transform="translate(0 -1.45)"/><path class="cls-3" d="M19.63,14.91H18.55a1.3,1.3,0,0,0-1.34-1.19,0.92,0.92,0,0,0-1.05.95c0,0.64.53,0.89,1.39,1.12,1.46,0.38,2.16,1,2.16,2s-1,1.8-2.36,1.8a2.24,2.24,0,0,1-2.49-2h1.08a1.37,1.37,0,0,0,1.49,1.25,1,1,0,0,0,1.24-.92c0-.61-0.43-0.93-1.5-1.22s-2.05-.78-2.05-1.9a1.91,1.91,0,0,1,2.19-1.86A2.13,2.13,0,0,1,19.63,14.91Z" transform="translate(0 -1.45)"/></svg>