<?xml version="1.0" encoding="utf-8"?>
<!-- Generated by IcoMoon.io -->
<!DOCTYPE svg PUBLIC "-//W3C//DTD SVG 1.1//EN" "http://www.w3.org/Graphics/SVG/1.1/DTD/svg11.dtd">
<svg version="1.1" xmlns="http://www.w3.org/2000/svg" xmlns:xlink="http://www.w3.org/1999/xlink" width="32" height="32" viewBox="0 0 32 32">
<path fill="#444444" d="M8.655 30.182c0.483 0.193 0.967 0.297 1.396 0.297h11.907c1.304 0 2.956-0.954 3.609-2.084l5.953-10.313c0.264-0.457 0.429-1.044 0.478-1.683l-23.344 13.783zM17.308 7.845l-9.694-5.461c-0.507 0.356-0.92 0.786-1.171 1.22l-5.954 10.312c-0.652 1.129-0.652 3.037 0 4.167l5.954 10.313c0.344 0.596 0.968 1.159 1.721 1.558l23.627-13.95-14.483-8.159zM32 15.61c-0.048-0.644-0.213-1.235-0.478-1.694l-5.954-10.313c-0.652-1.129-2.305-2.083-3.609-2.083h-11.907c-0.625 0-1.342 0.213-2.010 0.592l23.958 13.498z"></path>
</svg>
