<svg id="Layer_1" data-name="Layer 1" xmlns="http://www.w3.org/2000/svg" viewBox="0 0 31.95 29.1"><defs><style>.cls-1{fill:#548282;}.cls-2{fill:#444;}.cls-3{fill:#fff;}</style></defs><title>sp-icon</title><path class="cls-1" d="M31.45,13.85l-5.9-10.2a4.87,4.87,0,0,0-3.7-2.2H10.15a4.56,4.56,0,0,0-3.7,2.2l-5.9,10.2a4.66,4.66,0,0,0,0,4.3l5.9,10.2a4.87,4.87,0,0,0,3.7,2.2h11.7a4.56,4.56,0,0,0,3.7-2.2l5.9-10.2A4.66,4.66,0,0,0,31.45,13.85Z" transform="translate(-0.02 -1.45)"/><polygon class="cls-2" points="11.73 15.78 11.73 15.78 11.73 15.78 11.73 15.78"/><path class="cls-3" d="M14.69,14.54H13.61a1.3,1.3,0,0,0-1.34-1.19,0.92,0.92,0,0,0-1.06.95c0,0.64.53,0.89,1.39,1.12,1.46,0.38,2.16,1,2.16,2s-1,1.8-2.36,1.8a2.24,2.24,0,0,1-2.49-2H11a1.37,1.37,0,0,0,1.49,1.25,1,1,0,0,0,1.24-.92c0-.61-0.43-0.93-1.5-1.22s-2.05-.78-2.05-1.9a1.91,1.91,0,0,1,2.19-1.86A2.13,2.13,0,0,1,14.69,14.54Z" transform="translate(-0.02 -1.45)"/><path class="cls-3" d="M22.09,15.81c0,2.35-1.46,3.44-3.11,3.44a2.75,2.75,0,0,1-1.52-.42L17,18.21v3.23H16V12.73h1v1l0.48-.68a2.83,2.83,0,0,1,1.68-.5C21.06,12.56,22.09,14,22.09,15.81ZM21,15.93c0-1.44-.65-2.58-1.92-2.58-1.06,0-2,.67-2,2.49V16.2A2,2,0,0,0,19,18.46C20.1,18.46,21,17.6,21,15.93Z" transform="translate(-0.02 -1.45)"/></svg>