<?xml version="1.0" encoding="utf-8"?>
<!-- Generator: Adobe Illustrator 19.2.0, SVG Export Plug-In . SVG Version: 6.00 Build 0)  -->
<svg version="1.1" id="Layer_1" xmlns="http://www.w3.org/2000/svg" xmlns:xlink="http://www.w3.org/1999/xlink" x="0px" y="0px"
	 viewBox="0 0 32 29.1" style="enable-background:new 0 0 32 29.1;" xml:space="preserve">
<style type="text/css">
	.st0{fill:#FFFFFF;}
	.st1{fill:#444444;}
	.st2{fill:#548282;}
</style>
<title>sp-icon</title>
<path class="st0" d="M31.4,12.4L25.5,2.2c-0.8-1.3-2.2-2.1-3.7-2.2H10.1C8.6,0.1,7.2,0.9,6.4,2.2L0.5,12.4c-0.7,1.3-0.7,3,0,4.3
	l5.9,10.2c0.8,1.3,2.2,2.1,3.7,2.2h11.7c1.5-0.1,2.9-0.9,3.7-2.2l5.9-10.2C32.1,15.4,32.1,13.7,31.4,12.4z"/>
<polygon class="st1" points="11.7,15.8 11.7,15.8 11.7,15.8 "/>
<path class="st2" d="M14.7,13.1h-1.1c-0.1-0.7-0.6-1.2-1.3-1.2c-0.5-0.1-1,0.3-1.1,0.8c0,0.1,0,0.1,0,0.2c0,0.6,0.5,0.9,1.4,1.1
	c1.5,0.4,2.2,1,2.2,2s-1,1.8-2.4,1.8c-1.2,0.1-2.3-0.7-2.5-2c0,0,0,0,0,0H11c0.1,0.8,0.7,1.3,1.5,1.3c0,0,0,0,0,0
	c0.5,0.1,1.1-0.2,1.2-0.7c0-0.1,0-0.1,0-0.2c0-0.6-0.4-0.9-1.5-1.2s-2.1-0.8-2.1-1.9c0-1.1,0.9-1.9,1.9-1.9c0.1,0,0.2,0,0.3,0
	C13.5,11,14.6,11.9,14.7,13.1C14.7,13.1,14.7,13.1,14.7,13.1z"/>
<path class="st2" d="M22.1,14.4c0,2.3-1.5,3.4-3.1,3.4c-0.5,0-1.1-0.1-1.5-0.4L17,16.8V20h-1v-8.7h1v1l0.5-0.7
	c0.5-0.3,1.1-0.5,1.7-0.5C21,11.1,22.1,12.6,22.1,14.4z M21,14.5c0-1.4-0.6-2.6-1.9-2.6c-1.1,0-2,0.7-2,2.5v0.4
	c-0.1,1.1,0.6,2.1,1.7,2.2c0.1,0,0.1,0,0.2,0C20.1,17,21,16.1,21,14.5z"/>
</svg>
